<svg id="Layer_2" data-name="Layer 2" xmlns="http://www.w3.org/2000/svg" viewBox="0 0 265.68 291.68">
  <defs>
    <style>
      .cls-1 {
        fill: #0070f3;
        stroke-width: 0px;
      }
    </style>
  </defs>
  <g id="Layer_2-2" data-name="Layer 2">
    <g>
      <path class="cls-1" d="m59.56,179.39c1.96-42.81,20.45-57.22,20.55-98.92.04-15.88-2.61-31.21-6.78-45.55C54.54,24.01,35.75,13.09,16.95,2.18c-1.47-.85-6.53-3.46-10.1-1.43-3.1,1.76-3.71,6.3-3.97,9.99-.22,3.01-.24,5.94-.14,8.76L0,195.66l3.04,86.21c.09,9.1,5.39,12.17,13.69,7.94,5.91-3.03,11.72-6.26,17.56-9.4,6.24-3.38,12.58-6.57,18.73-10.14l20.72-11.12c-12.6-34.16-15.05-60.41-14.17-79.75Z"/>
      <path class="cls-1" d="m259.07,142.88c-32.98-19.18-65.96-38.36-98.95-57.54-.02.62-.04,1.24-.07,1.84-1.96,42.81-20.45,57.22-20.55,98.92-.03,12.23,1.54,24.12,4.16,35.5l11.64-6.25,55.46-29.85c8.02-4.46,16.14-8.72,24.24-13.07,7.91-4.25,15.83-8.43,23.64-12.74,9.17-5.15,9.44-11.59.44-16.81Z"/>
    </g>
  </g>
</svg>